<svg width="100%" height="100%" viewBox="0 0 50 51" fill="none"
  xmlns="http://www.w3.org/2000/svg">
  <g clip-path="url(#clip0_527_123444)">
    <path d="M35.4351 16.6255H32.8179C32.2487 16.6255 31.7074 16.899 31.3726 17.3677L22.6003 29.5329L18.6271 24.0195C18.2922 23.5564 17.7565 23.2773 17.1818 23.2773H14.5646C14.2018 23.2773 13.9898 23.6903 14.2018 23.986L21.155 33.6289C21.3192 33.8582 21.5358 34.045 21.7866 34.1738C22.0375 34.3027 22.3155 34.3699 22.5975 34.3699C22.8795 34.3699 23.1575 34.3027 23.4084 34.1738C23.6592 34.045 23.8758 33.8582 24.04 33.6289L35.7922 17.3343C36.0099 17.0385 35.7978 16.6255 35.4351 16.6255V16.6255Z" fill="#52C41A" />
    <path d="M25 0.5C11.1942 0.5 0 11.6942 0 25.5C0 39.3058 11.1942 50.5 25 50.5C38.8058 50.5 50 39.3058 50 25.5C50 11.6942 38.8058 0.5 25 0.5ZM25 46.2589C13.5379 46.2589 4.24107 36.9621 4.24107 25.5C4.24107 14.0379 13.5379 4.74107 25 4.74107C36.4621 4.74107 45.7589 14.0379 45.7589 25.5C45.7589 36.9621 36.4621 46.2589 25 46.2589Z" fill="#52C41A" />
  </g>
  <defs>
    <clipPath id="clip0_527_123444">
      <rect width="50" height="50" fill="white" transform="translate(0 0.5)" />
    </clipPath>
  </defs>
</svg>